<svg xmlns="http://www.w3.org/2000/svg" viewBox="0 0 1366 348">
  <defs>
    <style>
      .a {
        fill: #fff;
      }
    </style>
  </defs>
  <title>knockout</title>
  <path class="a" d="M613.55,218.83c-21.84,0-39.31,17.47-39.31,41,0,24.53,17.47,42.67,39.31,42.67s39.31-18.14,39.31-42.67C652.86,236.3,635.39,218.83,613.55,218.83Zm121.8.84H718.88V257h19.49c11.59,0,18.82-6.89,18.82-18.82C757.18,226.72,752.31,219.67,735.34,219.67ZM458.82,122.35c0-9.91-6.38-17.14-17.3-17.14H418.33v34.44h23.18C452.61,139.65,458.82,132.43,458.82,122.35ZM0,0V348H1366V0ZM669.49,39h71.4V57.67H691.17V88.91h40.15v18.65H691.17v32.09h52.42V158.3H669.49ZM396.66,39h42.67c21.5,0,36.79,11.09,36.79,30.74,0,11.09-5.38,20.66-14.45,25.54v.34c13.1,3.86,19.32,16,19.32,28.06,0,23.86-19.15,34.61-41.16,34.61H396.66ZM232.36,277.46c0,26.71-19.32,44.86-48,44.86-28.9,0-48.22-18.14-48.22-44.86V201h21.67v76.44c0,16,10.42,25,26.38,25s26.54-9.07,26.54-25.2V201h21.67ZM225,158.3,206.66,87.74a142.17,142.17,0,0,1-3-15.62h-.34a142,142,0,0,1-3,15.62L182,158.3h-25L127,39h22.34l18.82,82.49a105.49,105.49,0,0,1,2,12.6h.34a94.33,94.33,0,0,1,2.18-12.6L194.22,39H213l21.17,82.49a94.33,94.33,0,0,1,2.18,12.6h.34a105.49,105.49,0,0,1,2-12.6L258.4,39h22.34L250,158.3Zm133.39,162h-21.5l-45.19-68.71c-4.54-6.89-9.91-18.48-9.91-18.48h-.34s1.18,11.42,1.18,18.48V320.3H260.92V201h21.67l45.19,68.88c4.54,6.89,9.91,18.48,9.91,18.48H338s-1.18-11.42-1.18-18.48V201h21.5Zm15.79-162H300.06V39h71.4V57.67H321.73V88.91h40.15v18.65H321.73v32.09h52.42Zm36.12,162H388.6V201h21.67Zm83.66,2c-36.46,0-61.66-27-61.66-62.16,0-34.61,26.21-61.15,61.32-61.15,29.06,0,44,16.3,44,16.3L527.2,231.43s-13.61-12.6-32.59-12.6c-25.2,0-40,18.82-40,41,0,22.68,15.29,42.67,40.15,42.67,20.66,0,34.61-15.12,34.61-15.12L540.8,303S524.34,322.31,493.93,322.31ZM545.34,39H586c36.79,0,60.82,21.84,60.82,59.47s-24,59.81-60.82,59.81H545.34Zm68.2,283.3c-35.11,0-61.66-27.38-61.66-62.5,0-34.1,26.54-60.82,61.66-60.82s61.66,26.71,61.66,60.82C675.2,294.93,648.66,322.31,613.55,322.31Zm149.86-2-23.69-44.52H718.88V320.3H697.21V201h38.47c12.94,0,18.82,1,24,3.36,11.93,5.38,19.49,16.8,19.49,32.59,0,14.28-7.56,27.55-20.16,32.59v.34a29.18,29.18,0,0,1,4,5.88l24.53,44.52ZM750.8,39h23.35l26.21,77.78c2.35,6.89,4.37,17.47,4.54,17.47h.34c.17,0,2.18-10.58,4.54-17.47L836.15,39h23.18L815.82,158.3h-21.5ZM905.19,320.3h-21.5L838.5,251.59c-4.54-6.89-9.91-18.48-9.91-18.48h-.34s1.18,11.42,1.18,18.48V320.3H807.75V201h21.67l45.19,68.88c4.54,6.89,9.91,18.48,9.91,18.48h.34s-1.18-11.42-1.18-18.48V201h21.5ZM998.1,118.65H961.81V158.3h-17.3V118.65H908.22V102h36.29V62.2h17.3V102H998.1Zm-544-46.2c0-8.57-5-14.78-15.12-14.78H418.33V87.74h21C448.74,87.74,454.12,81,454.12,72.45Zm170.35,26c0-26.54-15.79-40.82-39.65-40.82H567v82h17.81C609,139.65,624.47,125.37,624.47,98.49Z"/>
</svg>
